<?xml version="1.0" encoding="utf-8"?>
<!-- Generator: Adobe Illustrator 16.0.4, SVG Export Plug-In . SVG Version: 6.00 Build 0)  -->
<!DOCTYPE svg PUBLIC "-//W3C//DTD SVG 1.1//EN" "http://www.w3.org/Graphics/SVG/1.1/DTD/svg11.dtd">
<svg version="1.1" id="Layer_1" xmlns="http://www.w3.org/2000/svg" xmlns:xlink="http://www.w3.org/1999/xlink" x="0px" y="0px"
	 width="878.324px" height="360.141px" viewBox="0 0 878.324 360.141" enable-background="new 0 0 878.324 360.141"
	 xml:space="preserve">
<g opacity="0.1">
	<path fill="none" stroke="#B0925A" stroke-width="2" stroke-miterlimit="10" d="M869.955,360.141L446.426,60.052
		c0,0-3.939-2.911-7.273-2.911h0.021c-3.333,0-7.273,2.911-7.273,2.911L8.369,360.096"/>
	<path fill="none" stroke="#B0925A" stroke-width="2" stroke-miterlimit="10" d="M847.247,360.141L446.043,75.884
		c0,0-3.734-2.743-6.892-2.743h0.021c-3.158,0-6.892,2.743-6.892,2.743L31.077,360.105"/>
	<path fill="none" stroke="#B0925A" stroke-width="2" stroke-miterlimit="10" d="M824.539,360.141L445.66,91.717
		c0,0-3.526-2.576-6.508-2.576h0.02c-2.98,0-6.508,2.576-6.508,2.576L53.785,360.115"/>
	<path fill="none" stroke="#B0925A" stroke-width="2" stroke-miterlimit="10" d="M801.831,360.141L445.277,107.549
		c0,0-3.318-2.408-6.125-2.408h0.02c-2.807,0-6.125,2.408-6.125,2.408L76.494,360.124"/>
	<path fill="none" stroke="#B0925A" stroke-width="2" stroke-miterlimit="10" d="M779.123,360.141L444.895,123.382
		c0,0-3.108-2.241-5.739-2.241h0.018c-2.63,0-5.741,2.241-5.741,2.241L99.201,360.134"/>
	<path fill="none" stroke="#B0925A" stroke-width="2" stroke-miterlimit="10" d="M756.414,360.141L444.512,139.214
		c0,0-2.901-2.073-5.356-2.073h0.017c-2.456,0-5.355,2.073-5.355,2.073L121.91,360.143"/>
	<path fill="none" stroke="#B0925A" stroke-width="2" stroke-miterlimit="10" d="M733.706,360.141L444.129,155.046
		c0,0-2.695-1.905-4.975-1.905h0.016c-2.279,0-4.974,1.905-4.974,1.905L144.618,360.152"/>
	<path fill="none" stroke="#B0925A" stroke-width="2" stroke-miterlimit="10" d="M710.998,360.141L443.746,170.879
		c0,0-2.487-1.738-4.591-1.738h0.014c-2.104,0-4.59,1.738-4.59,1.738L167.326,360.162"/>
	<path fill="none" stroke="#B0925A" stroke-width="2" stroke-miterlimit="10" d="M688.29,360.141L443.363,186.712
		c0,0-2.28-1.571-4.208-1.571h0.013c-1.927,0-4.207,1.571-4.207,1.571l-244.928,173.46"/>
	<path fill="none" stroke="#B0925A" stroke-width="2" stroke-miterlimit="10" d="M665.582,360.141L442.98,202.544
		c0,0-2.072-1.403-3.824-1.403h0.012c-1.752,0-3.823,1.403-3.823,1.403L212.742,360.181"/>
</g>
</svg>
