<?xml version="1.0" encoding="utf-8"?>
<!-- Generator: Adobe Illustrator 16.0.4, SVG Export Plug-In . SVG Version: 6.00 Build 0)  -->
<!DOCTYPE svg PUBLIC "-//W3C//DTD SVG 1.1//EN" "http://www.w3.org/Graphics/SVG/1.1/DTD/svg11.dtd">
<svg version="1.1" id="Layer_1" xmlns="http://www.w3.org/2000/svg" xmlns:xlink="http://www.w3.org/1999/xlink" x="0px" y="0px"
	 width="878.324px" height="360.141px" viewBox="0 0 878.324 360.141" enable-background="new 0 0 878.324 360.141"
	 xml:space="preserve">
<g opacity="0.2">
	<path fill="none" stroke="#FFFFFF" stroke-width="2" stroke-miterlimit="10" d="M8.369,0l423.529,300.159
		c0,0,3.94,2.981,7.274,2.981h-0.021c3.333,0,7.274-2.981,7.274-2.981L869.955,0.08"/>
	<path fill="none" stroke="#FFFFFF" stroke-width="2" stroke-miterlimit="10" d="M31.077,0l401.204,284.327
		c0,0,3.732,2.813,6.892,2.813h-0.021c3.157,0,6.891-2.813,6.891-2.813L847.247,0.069"/>
	<path fill="none" stroke="#FFFFFF" stroke-width="2" stroke-miterlimit="10" d="M53.785,0l378.879,268.494
		c0,0,3.526,2.646,6.508,2.646h-0.02c2.98,0,6.508-2.646,6.508-2.646L824.539,0.061"/>
	<path fill="none" stroke="#FFFFFF" stroke-width="2" stroke-miterlimit="10" d="M76.494,0l356.553,252.661
		c0,0,3.318,2.479,6.125,2.479h-0.02c2.807,0,6.125-2.479,6.125-2.479L801.831,0.051"/>
	<path fill="none" stroke="#FFFFFF" stroke-width="2" stroke-miterlimit="10" d="M99.201,0L433.43,236.829
		c0,0,3.111,2.312,5.741,2.312h-0.018c2.631,0,5.74-2.312,5.74-2.312L779.123,0.042"/>
	<path fill="none" stroke="#FFFFFF" stroke-width="2" stroke-miterlimit="10" d="M121.91,0l311.902,220.997
		c0,0,2.903,2.144,5.358,2.144h-0.017c2.455,0,5.356-2.144,5.356-2.144L756.414,0.033"/>
	<path fill="none" stroke="#FFFFFF" stroke-width="2" stroke-miterlimit="10" d="M144.618,0l289.577,205.164
		c0,0,2.694,1.977,4.975,1.977h-0.016c2.278,0,4.974-1.977,4.974-1.977L733.706,0.023"/>
	<path fill="none" stroke="#FFFFFF" stroke-width="2" stroke-miterlimit="10" d="M167.326,0l267.252,189.332
		c0,0,2.487,1.809,4.591,1.809h-0.014c2.104,0,4.59-1.809,4.59-1.809L710.998,0.014"/>
	<path fill="none" stroke="#FFFFFF" stroke-width="2" stroke-miterlimit="10" d="M190.034,0l244.927,173.499
		c0,0,2.28,1.642,4.208,1.642h-0.013c1.928,0,4.207-1.642,4.207-1.642L688.29,0.004"/>
	<path fill="none" stroke="#FFFFFF" stroke-width="2" stroke-miterlimit="10" d="M212.742,0l222.602,157.667
		c0,0,2.072,1.474,3.824,1.474h-0.012c1.752,0,3.822-1.474,3.822-1.474L665.582-0.005"/>
</g>
</svg>
